# xmcd CD database file
#
# Track frame offsets:
#	150
#	11785
#	36127
#	48776
#	64047
#	79587
#	90180
#	105758
#	126746
#	145505
#
# Disc length: 2139 seconds
#
# Revision: 9
# Processed by: cddbd v1.5.2PL0 Copyright (c) Steve Scherf et al.
# Submitted via: CDex 2.12
#
DISCID=7008590a
DTITLE=ZZ Top - ZZ Top's First Album (2013 Remastered Warner Bros. Records
DYEAR=1970
DGENRE=Rock
TTITLE0=(Somebody Else Been) Shaking Your Tree
TTITLE1=Brown Sugar
TTITLE2=Squank
TTITLE3=Goin' Down To Mexico
TTITLE4=Old Man
TTITLE5=Neighbor, Neighbor
TTITLE6=Certified Blues
TTITLE7=Bedroom Thang
TTITLE8=Just Got Back From Baby's
TTITLE9=Backdoor Love Affair
EXTD=YEAR: 1970
EXTT0=
EXTT1=
EXTT2=
EXTT3=
EXTT4=
EXTT5=
EXTT6=
EXTT7=
EXTT8=
EXTT9=
PLAYORDER=
